<svg width="1938" height="1550" viewBox="0 0 1938 1550" fill="none" xmlns="http://www.w3.org/2000/svg">
<g filter="url(#filter0_df_97_5)">
<path fill-rule="evenodd" clip-rule="evenodd" d="M1642.75 1302.58C1631.56 1308.68 1619.25 1313.83 1605.82 1318.03C1592.74 1322.29 1578.67 1325.88 1563.62 1328.8C1548.26 1331.42 1532.42 1333.58 1516.11 1335.27C1499.48 1336.67 1482.54 1337.75 1465.29 1338.53C1447.72 1339.01 1429.81 1339.3 1411.57 1339.41C1393.33 1339.53 1374.95 1339.36 1356.44 1338.92C1337.88 1338.72 1319.34 1338.4 1300.83 1337.96C1282.31 1337.52 1263.94 1337.35 1245.69 1337.46C1227.49 1337.33 1209.81 1337.4 1192.63 1337.68C1175.06 1338.16 1157.83 1338.82 1140.93 1339.65C1124.42 1340.3 1108.07 1341.1 1091.88 1342.05C1075.69 1343.01 1059.86 1344.02 1044.38 1345.09C1029.29 1345.96 1014.23 1346.71 999.187 1347.34C984.458 1348.28 969.966 1348.87 955.713 1349.11C941.105 1349.3 926.891 1349.3 913.074 1349.11C899.296 1348.66 885.756 1347.88 872.454 1346.75C859.152 1345.62 845.93 1343.99 832.789 1341.87C819.647 1339.74 806.784 1337.03 794.199 1333.72C781.653 1330.16 769.188 1326.11 756.804 1321.55C744.419 1317 732.47 1312.01 720.957 1306.58C709.088 1301.09 697.497 1295.01 686.184 1288.34C674.831 1281.91 663.756 1274.9 652.959 1267.29C642.122 1259.93 631.7 1252.25 621.694 1244.26C611.688 1236.27 601.919 1227.93 592.389 1219.25C582.898 1210.32 573.961 1201.36 565.576 1192.35C556.876 1183.04 548.749 1173.57 541.195 1163.93C533.246 1154.49 525.89 1144.76 519.126 1134.74C511.968 1124.91 505.382 1114.93 499.369 1104.77C493.316 1094.87 487.501 1084.63 481.924 1074.03C476.306 1063.69 470.907 1053.13 465.725 1042.35C460.543 1031.57 455.381 1020.66 450.239 1009.63C445.097 998.601 439.996 987.322 434.934 975.795C429.518 964.21 424.121 952.501 418.745 940.668C413.368 928.835 407.657 916.82 401.61 904.624C395.603 892.179 389.242 879.677 382.525 867.117C375.848 854.309 368.659 841.291 360.957 828.062C353.295 814.584 345.278 801.049 336.906 787.457C328.178 773.808 319.471 760.034 310.784 746.136C302.137 731.989 293.667 717.871 285.375 703.782C276.728 689.636 268.436 675.546 260.5 661.515C252.603 647.234 245.219 633.165 238.348 619.305C231.872 605.254 225.909 591.414 220.459 577.784C215.048 563.906 210.683 550.324 207.364 537.038C204.085 523.504 202.008 510.42 201.135 497.785C200.301 484.901 200.869 472.371 202.837 460.195C204.805 448.019 208.173 436.197 212.943 424.729C218.067 413.318 224.237 402.204 231.452 391.386C239.022 380.626 247.796 370.315 257.772 360.453C267.393 350.534 278.019 341.16 289.651 332.331C301.323 323.253 313.842 314.568 327.21 306.274C340.537 298.229 354.534 290.547 369.202 283.229C383.87 275.91 398.99 269.175 414.562 263.022C430.175 256.621 446.24 250.804 462.757 245.569C478.919 240.277 495.377 235.415 512.129 230.983C528.841 226.8 545.67 223.018 562.617 219.637C579.563 216.257 596.43 213.373 613.216 210.987C630.002 208.6 646.905 206.615 663.926 205.032C680.947 203.448 698.065 202.39 715.28 201.858C732.18 201.02 749.178 200.707 766.272 200.92C783.052 200.828 799.949 201.136 816.964 201.847C833.623 202.499 850.399 203.554 867.293 205.009C883.872 206.159 900.391 207.681 916.849 209.577C933.308 211.472 949.726 213.615 966.104 216.008C982.087 218.591 998.05 221.298 1013.99 224.13C1029.93 226.962 1045.84 230.042 1061.7 233.371C1077.21 236.642 1092.67 240.162 1108.1 243.93C1123.53 247.698 1138.74 251.686 1153.73 255.894C1169.07 260.16 1184.03 264.616 1198.58 269.263C1213.49 273.968 1228.19 278.893 1242.66 284.037C1257.49 289.239 1272.1 294.661 1286.5 300.302C1300.5 306.134 1314.66 312.12 1328.97 318.258C1342.93 324.339 1356.83 330.793 1370.67 337.619C1384.55 344.197 1398.19 351.119 1411.59 358.385C1425.35 365.709 1438.72 373.223 1451.68 380.929C1465.01 388.692 1477.94 396.646 1490.47 404.791C1503 412.936 1515.14 421.272 1526.88 429.799C1538.94 438.633 1550.6 447.657 1561.87 456.872C1572.78 466.03 1583.29 475.379 1593.41 484.919C1603.85 494.765 1613.55 504.621 1622.53 514.485C1631.82 524.656 1640.34 535.085 1648.09 545.772C1656.23 556.267 1663.6 567.02 1670.21 578.032C1676.81 589.043 1682.64 600.312 1687.7 611.84C1693.12 623.424 1697.78 635.143 1701.7 646.995C1705.62 658.847 1709.12 671.014 1712.2 683.496C1714.97 695.673 1717.5 708.194 1719.8 721.059C1721.74 733.866 1723.46 746.893 1724.96 760.14C1726.5 773.139 1727.63 786.452 1728.34 800.081C1729.41 813.768 1730.1 827.521 1730.42 841.341C1731.09 855.219 1731.73 869.345 1732.32 883.72C1732.56 898.037 1732.95 912.507 1733.5 927.13C1733.66 941.944 1734.17 956.816 1735.04 971.745C1735.51 986.865 1735.81 1001.96 1735.92 1017.02C1736.43 1031.89 1736.75 1046.86 1736.86 1061.92C1736.67 1076.68 1736.13 1091.25 1735.26 1105.65C1734.75 1120.1 1733.59 1134.06 1731.77 1147.54C1729.92 1161.26 1727.42 1174.5 1724.26 1187.25C1721.15 1199.75 1717.21 1211.73 1712.44 1223.2C1707.71 1234.42 1702.17 1245 1695.83 1254.94C1689.13 1264.82 1681.31 1273.75 1672.36 1281.74C1663.77 1289.79 1653.9 1296.73 1642.75 1302.58Z" fill="url(#paint0_linear_97_5)" fill-opacity="0.79"/>
<path fill-rule="evenodd" clip-rule="evenodd" d="M1642.75 1302.58C1631.56 1308.68 1619.25 1313.83 1605.82 1318.03C1592.74 1322.29 1578.67 1325.88 1563.62 1328.8C1548.26 1331.42 1532.42 1333.58 1516.11 1335.27C1499.48 1336.67 1482.54 1337.75 1465.29 1338.53C1447.72 1339.01 1429.81 1339.3 1411.57 1339.41C1393.33 1339.53 1374.95 1339.36 1356.44 1338.92C1337.88 1338.72 1319.34 1338.4 1300.83 1337.96C1282.31 1337.52 1263.94 1337.35 1245.69 1337.46C1227.49 1337.33 1209.81 1337.4 1192.63 1337.68C1175.06 1338.16 1157.83 1338.82 1140.93 1339.65C1124.42 1340.3 1108.07 1341.1 1091.88 1342.05C1075.69 1343.01 1059.86 1344.02 1044.38 1345.09C1029.29 1345.96 1014.23 1346.71 999.187 1347.34C984.458 1348.28 969.966 1348.87 955.713 1349.11C941.105 1349.3 926.891 1349.3 913.074 1349.11C899.296 1348.66 885.756 1347.88 872.454 1346.75C859.152 1345.62 845.93 1343.99 832.789 1341.87C819.647 1339.74 806.784 1337.03 794.199 1333.72C781.653 1330.16 769.188 1326.11 756.804 1321.55C744.419 1317 732.47 1312.01 720.957 1306.58C709.088 1301.09 697.497 1295.01 686.184 1288.34C674.831 1281.91 663.756 1274.9 652.959 1267.29C642.122 1259.93 631.7 1252.25 621.694 1244.26C611.688 1236.27 601.919 1227.93 592.389 1219.25C582.898 1210.32 573.961 1201.36 565.576 1192.35C556.876 1183.04 548.749 1173.57 541.195 1163.93C533.246 1154.49 525.89 1144.76 519.126 1134.74C511.968 1124.91 505.382 1114.93 499.369 1104.77C493.316 1094.87 487.501 1084.63 481.924 1074.03C476.306 1063.69 470.907 1053.13 465.725 1042.35C460.543 1031.57 455.381 1020.66 450.239 1009.63C445.097 998.601 439.996 987.322 434.934 975.795C429.518 964.21 424.121 952.501 418.745 940.668C413.368 928.835 407.657 916.82 401.61 904.624C395.603 892.179 389.242 879.677 382.525 867.117C375.848 854.309 368.659 841.291 360.957 828.062C353.295 814.584 345.278 801.049 336.906 787.457C328.178 773.808 319.471 760.034 310.784 746.136C302.137 731.989 293.667 717.871 285.375 703.782C276.728 689.636 268.436 675.546 260.5 661.515C252.603 647.234 245.219 633.165 238.348 619.305C231.872 605.254 225.909 591.414 220.459 577.784C215.048 563.906 210.683 550.324 207.364 537.038C204.085 523.504 202.008 510.42 201.135 497.785C200.301 484.901 200.869 472.371 202.837 460.195C204.805 448.019 208.173 436.197 212.943 424.729C218.067 413.318 224.237 402.204 231.452 391.386C239.022 380.626 247.796 370.315 257.772 360.453C267.393 350.534 278.019 341.16 289.651 332.331C301.323 323.253 313.842 314.568 327.21 306.274C340.537 298.229 354.534 290.547 369.202 283.229C383.87 275.91 398.99 269.175 414.562 263.022C430.175 256.621 446.24 250.804 462.757 245.569C478.919 240.277 495.377 235.415 512.129 230.983C528.841 226.8 545.67 223.018 562.617 219.637C579.563 216.257 596.43 213.373 613.216 210.987C630.002 208.6 646.905 206.615 663.926 205.032C680.947 203.448 698.065 202.39 715.28 201.858C732.18 201.02 749.178 200.707 766.272 200.92C783.052 200.828 799.949 201.136 816.964 201.847C833.623 202.499 850.399 203.554 867.293 205.009C883.872 206.159 900.391 207.681 916.849 209.577C933.308 211.472 949.726 213.615 966.104 216.008C982.087 218.591 998.05 221.298 1013.99 224.13C1029.93 226.962 1045.84 230.042 1061.7 233.371C1077.21 236.642 1092.67 240.162 1108.1 243.93C1123.53 247.698 1138.74 251.686 1153.73 255.894C1169.07 260.16 1184.03 264.616 1198.58 269.263C1213.49 273.968 1228.19 278.893 1242.66 284.037C1257.49 289.239 1272.1 294.661 1286.5 300.302C1300.5 306.134 1314.66 312.12 1328.97 318.258C1342.93 324.339 1356.83 330.793 1370.67 337.619C1384.55 344.197 1398.19 351.119 1411.59 358.385C1425.35 365.709 1438.72 373.223 1451.68 380.929C1465.01 388.692 1477.94 396.646 1490.47 404.791C1503 412.936 1515.14 421.272 1526.88 429.799C1538.94 438.633 1550.6 447.657 1561.87 456.872C1572.78 466.03 1583.29 475.379 1593.41 484.919C1603.85 494.765 1613.55 504.621 1622.53 514.485C1631.82 524.656 1640.34 535.085 1648.09 545.772C1656.23 556.267 1663.6 567.02 1670.21 578.032C1676.81 589.043 1682.64 600.312 1687.7 611.84C1693.12 623.424 1697.78 635.143 1701.7 646.995C1705.62 658.847 1709.12 671.014 1712.2 683.496C1714.97 695.673 1717.5 708.194 1719.8 721.059C1721.74 733.866 1723.46 746.893 1724.96 760.14C1726.5 773.139 1727.63 786.452 1728.34 800.081C1729.41 813.768 1730.1 827.521 1730.42 841.341C1731.09 855.219 1731.73 869.345 1732.32 883.72C1732.56 898.037 1732.95 912.507 1733.5 927.13C1733.66 941.944 1734.17 956.816 1735.04 971.745C1735.51 986.865 1735.81 1001.96 1735.92 1017.02C1736.43 1031.89 1736.75 1046.86 1736.86 1061.92C1736.67 1076.68 1736.13 1091.25 1735.26 1105.65C1734.75 1120.1 1733.59 1134.06 1731.77 1147.54C1729.92 1161.26 1727.42 1174.5 1724.26 1187.25C1721.15 1199.75 1717.21 1211.73 1712.44 1223.2C1707.71 1234.42 1702.17 1245 1695.83 1254.94C1689.13 1264.82 1681.31 1273.75 1672.36 1281.74C1663.77 1289.79 1653.9 1296.73 1642.75 1302.58Z" stroke="black"/>
</g>
<defs>
<filter id="filter0_df_97_5" x="0.262939" y="0.355469" width="1937.1" height="1549.4" filterUnits="userSpaceOnUse" color-interpolation-filters="sRGB">
<feFlood flood-opacity="0" result="BackgroundImageFix"/>
<feColorMatrix in="SourceAlpha" type="matrix" values="0 0 0 0 0 0 0 0 0 0 0 0 0 0 0 0 0 0 127 0" result="hardAlpha"/>
<feOffset dy="4"/>
<feGaussianBlur stdDeviation="4"/>
<feColorMatrix type="matrix" values="0 0 0 0 0 0 0 0 0 0 0 0 0 0 0 0 0 0 0.15 0"/>
<feBlend mode="normal" in2="BackgroundImageFix" result="effect1_dropShadow_97_5"/>
<feBlend mode="normal" in="SourceGraphic" in2="effect1_dropShadow_97_5" result="shape"/>
<feGaussianBlur stdDeviation="100" result="effect2_foregroundBlur_97_5"/>
</filter>
<linearGradient id="paint0_linear_97_5" x1="1192" y1="392.196" x2="724" y2="1292.2" gradientUnits="userSpaceOnUse">
<stop stop-color="#84B7E5"/>
<stop offset="1" stop-color="#324C63"/>
</linearGradient>
</defs>
</svg>
