<svg width="1394" height="1175" viewBox="0 0 1394 1175" fill="none" xmlns="http://www.w3.org/2000/svg">
<g filter="url(#filter0_df_38_5)">
<path fill-rule="evenodd" clip-rule="evenodd" d="M1642.75 927.385C1631.56 933.481 1619.25 938.63 1605.82 942.833C1592.74 947.094 1578.67 950.685 1563.62 953.607C1548.26 956.223 1532.42 958.38 1516.11 960.079C1499.48 961.471 1482.54 962.558 1465.29 963.339C1447.72 963.813 1429.81 964.107 1411.57 964.218C1393.33 964.33 1374.95 964.164 1356.44 963.722C1337.88 963.527 1319.34 963.209 1300.83 962.766C1282.31 962.323 1263.94 962.157 1245.69 962.269C1227.49 962.132 1209.81 962.206 1192.63 962.489C1175.06 962.964 1157.83 963.621 1140.93 964.459C1124.42 965.106 1108.07 965.906 1091.88 966.859C1075.69 967.812 1059.86 968.822 1044.38 969.89C1029.29 970.767 1014.23 971.519 999.187 972.147C984.458 973.082 969.966 973.672 955.713 973.918C941.105 974.106 926.891 974.104 913.074 973.91C899.296 973.468 885.756 972.682 872.454 971.552C859.152 970.422 845.93 968.795 832.789 966.671C819.647 964.547 806.784 961.831 794.199 958.522C781.653 954.964 769.188 950.91 756.804 946.358C744.419 941.807 732.47 936.816 720.957 931.385C709.088 925.897 697.497 919.817 686.184 913.143C674.831 906.719 663.756 899.702 652.959 892.092C642.122 884.731 631.7 877.055 621.694 869.063C611.688 861.071 601.919 852.735 592.389 844.055C582.898 835.127 573.961 826.161 565.576 817.156C556.876 807.846 548.749 798.373 541.195 788.737C533.246 779.293 525.89 769.563 519.126 759.545C511.968 749.719 505.382 739.73 499.369 729.579C493.316 719.676 487.501 709.43 481.924 698.839C476.306 688.497 470.907 677.935 465.725 667.153C460.543 656.372 455.381 645.466 450.239 634.435C445.097 623.405 439.996 612.126 434.934 600.599C429.518 589.015 424.121 577.306 418.745 565.473C413.368 553.64 407.657 541.625 401.61 529.428C395.603 516.983 389.242 504.481 382.525 491.922C375.848 479.113 368.659 466.095 360.957 452.866C353.295 439.389 345.278 425.854 336.906 412.262C328.178 398.612 319.471 384.838 310.784 370.94C302.137 356.794 293.667 342.676 285.375 328.587C276.728 314.44 268.436 300.351 260.5 286.319C252.603 272.039 245.219 257.969 238.348 244.109C231.872 230.059 225.909 216.218 220.459 202.589C215.048 188.71 210.683 175.128 207.364 161.843C204.085 148.309 202.008 135.224 201.135 122.589C200.301 109.705 200.869 97.1756 202.837 84.9997C204.805 72.8238 208.173 61.0018 212.943 49.5336C218.067 38.1228 224.237 27.0085 231.452 16.1907C239.022 5.4302 247.796 -4.88084 257.772 -14.7425C267.393 -24.6615 278.019 -34.0356 289.651 -42.8647C301.323 -51.9423 313.842 -60.628 327.21 -68.9216C340.537 -76.9667 354.534 -84.6486 369.202 -91.9671C383.87 -99.2856 398.99 -106.021 414.562 -112.173C430.175 -118.574 446.24 -124.392 462.757 -129.627C478.919 -134.919 495.377 -139.781 512.129 -144.213C528.841 -148.396 545.67 -152.178 562.617 -155.558C579.563 -158.939 596.43 -161.822 613.216 -164.209C630.002 -166.595 646.905 -168.58 663.926 -170.164C680.947 -171.748 698.065 -172.806 715.28 -173.338C732.18 -174.176 749.178 -174.488 766.272 -174.275C783.052 -174.368 799.949 -174.059 816.964 -173.349C833.623 -172.696 850.399 -171.642 867.293 -170.187C883.872 -169.037 900.391 -167.514 916.849 -165.619C933.308 -163.724 949.726 -161.58 966.104 -159.188C982.087 -156.605 998.05 -153.897 1013.99 -151.066C1029.93 -148.234 1045.84 -145.154 1061.7 -141.825C1077.21 -138.554 1092.67 -135.034 1108.1 -131.266C1123.53 -127.497 1138.74 -123.509 1153.73 -119.301C1169.07 -115.036 1184.03 -110.58 1198.58 -105.932C1213.49 -101.227 1228.19 -96.3028 1242.66 -91.1584C1257.49 -85.9566 1272.1 -80.535 1286.5 -74.8936C1300.5 -69.0612 1314.66 -63.0758 1328.97 -56.9374C1342.93 -50.8565 1356.83 -44.4028 1370.67 -37.5764C1384.55 -30.9984 1398.19 -24.0765 1411.59 -16.8105C1425.35 -9.4871 1438.72 -1.97264 1451.68 5.73292C1465.01 13.4959 1477.94 21.4499 1490.47 29.595C1503 37.7402 1515.14 46.0764 1526.88 54.6037C1538.94 63.4368 1550.6 72.4611 1561.87 81.6764C1572.78 90.8344 1583.29 100.183 1593.41 109.724C1603.85 119.57 1613.55 129.425 1622.53 139.29C1631.82 149.461 1640.34 159.889 1648.09 170.576C1656.23 181.071 1663.6 191.825 1670.21 202.836C1676.81 213.848 1682.64 225.117 1687.7 236.644C1693.12 248.229 1697.78 259.947 1701.7 271.799C1705.62 283.651 1709.12 295.818 1712.2 308.301C1714.97 320.477 1717.5 332.998 1719.8 345.863C1721.74 358.67 1723.46 371.697 1724.96 384.944C1726.5 397.943 1727.63 411.257 1728.34 424.886C1729.41 438.572 1730.1 452.326 1730.42 466.146C1731.09 480.023 1731.73 494.15 1732.32 508.524C1732.56 522.841 1732.95 537.311 1733.5 551.934C1733.66 566.749 1734.17 581.62 1735.04 596.549C1735.51 611.669 1735.81 626.76 1735.92 641.823C1736.43 656.695 1736.75 671.662 1736.86 686.724C1736.67 701.481 1736.13 716.056 1735.26 730.45C1734.75 744.9 1733.59 758.864 1731.77 772.339C1729.92 786.064 1727.42 799.3 1724.26 812.049C1721.15 824.55 1717.21 836.535 1712.44 848.003C1707.71 859.223 1702.17 869.802 1695.83 879.74C1689.13 889.622 1681.31 898.557 1672.36 906.545C1663.77 914.591 1653.9 921.538 1642.75 927.385Z" fill="url(#paint0_linear_38_5)" fill-opacity="0.79"/>
<path fill-rule="evenodd" clip-rule="evenodd" d="M1642.75 927.385C1631.56 933.481 1619.25 938.63 1605.82 942.833C1592.74 947.094 1578.67 950.685 1563.62 953.607C1548.26 956.223 1532.42 958.38 1516.11 960.079C1499.48 961.471 1482.54 962.558 1465.29 963.339C1447.72 963.813 1429.81 964.107 1411.57 964.218C1393.33 964.33 1374.95 964.164 1356.44 963.722C1337.88 963.527 1319.34 963.209 1300.83 962.766C1282.31 962.323 1263.94 962.157 1245.69 962.269C1227.49 962.132 1209.81 962.206 1192.63 962.489C1175.06 962.964 1157.83 963.621 1140.93 964.459C1124.42 965.106 1108.07 965.906 1091.88 966.859C1075.69 967.812 1059.86 968.822 1044.38 969.89C1029.29 970.767 1014.23 971.519 999.187 972.147C984.458 973.082 969.966 973.672 955.713 973.918C941.105 974.106 926.891 974.104 913.074 973.91C899.296 973.468 885.756 972.682 872.454 971.552C859.152 970.422 845.93 968.795 832.789 966.671C819.647 964.547 806.784 961.831 794.199 958.522C781.653 954.964 769.188 950.91 756.804 946.358C744.419 941.807 732.47 936.816 720.957 931.385C709.088 925.897 697.497 919.817 686.184 913.143C674.831 906.719 663.756 899.702 652.959 892.092C642.122 884.731 631.7 877.055 621.694 869.063C611.688 861.071 601.919 852.735 592.389 844.055C582.898 835.127 573.961 826.161 565.576 817.156C556.876 807.846 548.749 798.373 541.195 788.737C533.246 779.293 525.89 769.563 519.126 759.545C511.968 749.719 505.382 739.73 499.369 729.579C493.316 719.676 487.501 709.43 481.924 698.839C476.306 688.497 470.907 677.935 465.725 667.153C460.543 656.372 455.381 645.466 450.239 634.435C445.097 623.405 439.996 612.126 434.934 600.599C429.518 589.015 424.121 577.306 418.745 565.473C413.368 553.64 407.657 541.625 401.61 529.428C395.603 516.983 389.242 504.481 382.525 491.922C375.848 479.113 368.659 466.095 360.957 452.866C353.295 439.389 345.278 425.854 336.906 412.262C328.178 398.612 319.471 384.838 310.784 370.94C302.137 356.794 293.667 342.676 285.375 328.587C276.728 314.44 268.436 300.351 260.5 286.319C252.603 272.039 245.219 257.969 238.348 244.109C231.872 230.059 225.909 216.218 220.459 202.589C215.048 188.71 210.683 175.128 207.364 161.843C204.085 148.309 202.008 135.224 201.135 122.589C200.301 109.705 200.869 97.1756 202.837 84.9997C204.805 72.8238 208.173 61.0018 212.943 49.5336C218.067 38.1228 224.237 27.0085 231.452 16.1907C239.022 5.4302 247.796 -4.88084 257.772 -14.7425C267.393 -24.6615 278.019 -34.0356 289.651 -42.8647C301.323 -51.9423 313.842 -60.628 327.21 -68.9216C340.537 -76.9667 354.534 -84.6486 369.202 -91.9671C383.87 -99.2856 398.99 -106.021 414.562 -112.173C430.175 -118.574 446.24 -124.392 462.757 -129.627C478.919 -134.919 495.377 -139.781 512.129 -144.213C528.841 -148.396 545.67 -152.178 562.617 -155.558C579.563 -158.939 596.43 -161.822 613.216 -164.209C630.002 -166.595 646.905 -168.58 663.926 -170.164C680.947 -171.748 698.065 -172.806 715.28 -173.338C732.18 -174.176 749.178 -174.488 766.272 -174.275C783.052 -174.368 799.949 -174.059 816.964 -173.349C833.623 -172.696 850.399 -171.642 867.293 -170.187C883.872 -169.037 900.391 -167.514 916.849 -165.619C933.308 -163.724 949.726 -161.58 966.104 -159.188C982.087 -156.605 998.05 -153.897 1013.99 -151.066C1029.93 -148.234 1045.84 -145.154 1061.7 -141.825C1077.21 -138.554 1092.67 -135.034 1108.1 -131.266C1123.53 -127.497 1138.74 -123.509 1153.73 -119.301C1169.07 -115.036 1184.03 -110.58 1198.58 -105.932C1213.49 -101.227 1228.19 -96.3028 1242.66 -91.1584C1257.49 -85.9566 1272.1 -80.535 1286.5 -74.8936C1300.5 -69.0612 1314.66 -63.0758 1328.97 -56.9374C1342.93 -50.8565 1356.83 -44.4028 1370.67 -37.5764C1384.55 -30.9984 1398.19 -24.0765 1411.59 -16.8105C1425.35 -9.4871 1438.72 -1.97264 1451.68 5.73292C1465.01 13.4959 1477.94 21.4499 1490.47 29.595C1503 37.7402 1515.14 46.0764 1526.88 54.6037C1538.94 63.4368 1550.6 72.4611 1561.87 81.6764C1572.78 90.8344 1583.29 100.183 1593.41 109.724C1603.85 119.57 1613.55 129.425 1622.53 139.29C1631.82 149.461 1640.34 159.889 1648.09 170.576C1656.23 181.071 1663.6 191.825 1670.21 202.836C1676.81 213.848 1682.64 225.117 1687.7 236.644C1693.12 248.229 1697.78 259.947 1701.7 271.799C1705.62 283.651 1709.12 295.818 1712.2 308.301C1714.97 320.477 1717.5 332.998 1719.8 345.863C1721.74 358.67 1723.46 371.697 1724.96 384.944C1726.5 397.943 1727.63 411.257 1728.34 424.886C1729.41 438.572 1730.1 452.326 1730.42 466.146C1731.09 480.023 1731.73 494.15 1732.32 508.524C1732.56 522.841 1732.95 537.311 1733.5 551.934C1733.66 566.749 1734.17 581.62 1735.04 596.549C1735.51 611.669 1735.81 626.76 1735.92 641.823C1736.43 656.695 1736.75 671.662 1736.86 686.724C1736.67 701.481 1736.13 716.056 1735.26 730.45C1734.75 744.9 1733.59 758.864 1731.77 772.339C1729.92 786.064 1727.42 799.3 1724.26 812.049C1721.15 824.55 1717.21 836.535 1712.44 848.003C1707.71 859.223 1702.17 869.802 1695.83 879.74C1689.13 889.622 1681.31 898.557 1672.36 906.545C1663.77 914.591 1653.9 921.538 1642.75 927.385Z" stroke="black"/>
</g>
<defs>
<filter id="filter0_df_38_5" x="0.26297" y="-374.84" width="1937.1" height="1549.4" filterUnits="userSpaceOnUse" color-interpolation-filters="sRGB">
<feFlood flood-opacity="0" result="BackgroundImageFix"/>
<feColorMatrix in="SourceAlpha" type="matrix" values="0 0 0 0 0 0 0 0 0 0 0 0 0 0 0 0 0 0 127 0" result="hardAlpha"/>
<feOffset dy="4"/>
<feGaussianBlur stdDeviation="4"/>
<feColorMatrix type="matrix" values="0 0 0 0 0 0 0 0 0 0 0 0 0 0 0 0 0 0 0.15 0"/>
<feBlend mode="normal" in2="BackgroundImageFix" result="effect1_dropShadow_38_5"/>
<feBlend mode="normal" in="SourceGraphic" in2="effect1_dropShadow_38_5" result="shape"/>
<feGaussianBlur stdDeviation="100" result="effect2_foregroundBlur_38_5"/>
</filter>
<linearGradient id="paint0_linear_38_5" x1="1192" y1="17" x2="724" y2="917" gradientUnits="userSpaceOnUse">
<stop stop-color="#84B7E5"/>
<stop offset="1" stop-color="#324C63"/>
</linearGradient>
</defs>
</svg>
